<svg width="941" height="240" viewBox="0 0 941 240" fill="none" xmlns="http://www.w3.org/2000/svg">
<path d="M91.9207 176.824C96.0651 176.824 110.011 169.625 119.823 170.658C123.687 171.064 129.819 172.31 135.121 175.736C141.187 179.658 146.261 186.977 148.12 193.055C148.481 194.235 147.308 195.197 146.138 194.802C137.406 191.854 129.159 191.338 124.511 192.432C119.375 193.64 114.367 197.234 110.146 200.879C106.014 204.447 100.917 206.808 91.9207 206.808C82.9243 206.808 77.8275 204.447 73.6952 200.878C69.4749 197.234 64.4667 193.64 59.3303 192.432C54.6824 191.338 46.436 191.854 37.7032 194.802C36.5337 195.197 35.361 194.235 35.7219 193.055C37.5806 186.977 42.6542 179.658 48.7209 175.736C54.0223 172.31 60.1545 171.064 64.0188 170.658C73.83 169.625 87.7763 176.824 91.9207 176.824Z" fill="#ED5F76"/>
<path d="M100.681 148.61C100.681 146.834 102.121 145.393 103.898 145.393H145.721C147.498 145.393 148.938 146.834 148.938 148.61V150.219C148.938 151.996 147.498 153.436 145.721 153.436H103.898C102.121 153.436 100.681 151.996 100.681 150.219V148.61Z" fill="#ED5F76"/>
<path d="M35.6555 148.61C35.6555 146.834 37.0959 145.393 38.8727 145.393H80.6956C82.4724 145.393 83.9127 146.834 83.9127 148.61V150.219C83.9127 151.996 82.4724 153.436 80.6956 153.436H38.8727C37.0959 153.436 35.6555 151.996 35.6555 150.219V148.61Z" fill="#ED5F76"/>
<path d="M139.465 128.273V42.5847C139.465 37.3974 134.977 33.1922 129.441 33.1922L124.294 33.1921L124.294 108.147C124.294 109.185 123.396 110.026 122.289 110.026H120.335C119.228 110.026 118.331 109.185 118.331 108.147L118.331 33.1921L95.2784 33.1921L95.2784 108.147C95.2784 109.185 94.3808 110.026 93.2736 110.026H91.3199C90.2127 110.026 89.3152 109.185 89.3152 108.147L89.3152 33.1921L60.3 33.1922L66.2632 33.1922L66.2631 108.147C66.2631 109.185 65.3656 110.026 64.2584 110.026H62.3047C61.1975 110.026 60.2999 109.185 60.2999 108.147L60.3 33.1922H55.1525C49.6165 33.1922 45.1287 37.3974 45.1287 42.5847L45.1287 128.273H139.465Z" fill="#ED5F76"/>
<path d="M186.507 161.473C185.986 161.265 184.736 160.692 182.757 159.755C180.882 158.817 179.111 157.723 177.444 156.473C175.777 155.223 174.579 153.921 173.85 152.567C173.225 151.213 173.902 150.067 175.882 149.13C177.027 150.171 178.59 151.421 180.569 152.88C182.652 154.338 184.632 155.432 186.507 156.161C192.236 156.473 197.809 156.525 203.225 156.317C208.642 156.005 213.902 155.328 219.007 154.286C224.215 153.14 229.215 151.473 234.007 149.286C238.902 146.994 243.642 144.025 248.225 140.38C253.329 136.109 256.663 132.203 258.225 128.661C259.892 125.015 260.204 121.682 259.163 118.661C258.225 115.536 256.194 112.671 253.069 110.067C250.048 107.359 246.402 104.859 242.132 102.567C237.965 100.171 233.486 97.9838 228.694 96.0046C223.902 93.9213 219.319 91.9421 214.944 90.0671C210.569 88.088 206.611 86.1609 203.069 84.2859C199.527 82.4109 196.923 80.4838 195.257 78.5046C194.84 76.7338 195.725 74.6505 197.913 72.2546C200.1 69.8588 203.121 67.4109 206.975 64.9109C210.829 62.3067 215.257 59.7546 220.257 57.2546C225.257 54.6505 230.361 52.3067 235.569 50.2234C240.882 48.1401 245.986 46.3692 250.882 44.9109C255.882 43.4526 260.257 42.5671 264.007 42.2546C267.757 41.838 270.621 42.0984 272.6 43.0359C274.579 43.9734 275.257 45.7442 274.632 48.3484C273.902 48.4526 272.027 48.9213 269.007 49.7546C265.986 50.588 262.288 51.6296 257.913 52.8796C253.642 54.1296 248.954 55.588 243.85 57.2546C238.85 58.9213 233.902 60.6921 229.007 62.5671C224.111 64.338 219.579 66.1609 215.413 68.0359C211.246 69.9109 207.965 71.7338 205.569 73.5046C203.173 75.2755 201.819 76.8901 201.507 78.3484C201.298 79.8067 202.704 81.0567 205.725 82.0984C220.934 86.6817 232.861 91.5776 241.507 96.7859C250.257 101.89 256.402 107.098 259.944 112.411C263.486 117.619 264.84 122.775 264.007 127.88C263.173 132.984 260.882 137.723 257.132 142.098C253.486 146.473 248.694 150.38 242.757 153.817C236.819 157.15 230.517 159.755 223.85 161.63C217.288 163.505 210.673 164.494 204.007 164.598C197.444 164.703 191.611 163.661 186.507 161.473ZM277.132 159.598C274.632 157.515 273.225 154.442 272.913 150.38C272.704 146.317 273.277 141.734 274.632 136.63C276.09 131.525 278.173 126.213 280.882 120.692C283.694 115.067 286.923 109.755 290.569 104.755C294.215 99.6505 298.173 95.1192 302.444 91.1609C306.715 87.0984 310.986 84.1296 315.257 82.2546C319.527 80.2755 323.694 79.5984 327.757 80.2234C331.819 80.7442 335.517 83.088 338.85 87.2546C340.934 89.8588 342.184 92.5151 342.6 95.2234C343.017 97.8276 342.965 100.536 342.444 103.348C341.923 106.057 341.09 108.869 339.944 111.786C338.798 114.598 337.652 117.463 336.507 120.38C335.465 123.296 334.579 126.265 333.85 129.286C333.225 132.307 333.121 135.38 333.538 138.505C334.059 142.463 335.829 144.807 338.85 145.536C341.871 146.265 345.465 146.057 349.632 144.911C353.902 143.765 358.382 141.942 363.069 139.442C367.757 136.942 372.079 134.442 376.038 131.942C380.1 129.442 383.434 127.255 386.038 125.38C388.746 123.505 390.1 122.567 390.1 122.567C393.017 121.942 394.632 122.15 394.944 123.192C395.361 124.13 394.788 125.588 393.225 127.567C391.767 129.442 389.527 131.63 386.507 134.13C383.486 136.525 380.048 138.869 376.194 141.161C372.34 143.453 368.225 145.536 363.85 147.411C359.475 149.286 355.204 150.588 351.038 151.317C346.871 151.942 342.913 151.89 339.163 151.161C335.517 150.328 332.496 148.453 330.1 145.536C328.954 144.286 328.069 143.036 327.444 141.786C326.923 140.536 326.038 139.442 324.788 138.505C323.225 139.963 321.35 141.89 319.163 144.286C316.975 146.578 314.579 148.921 311.975 151.317C309.475 153.609 306.767 155.796 303.85 157.88C301.038 159.963 298.121 161.525 295.1 162.567C292.079 163.609 289.007 163.973 285.882 163.661C282.861 163.348 279.944 161.994 277.132 159.598ZM278.85 154.286C279.788 157.619 281.871 159.182 285.1 158.973C288.329 158.661 292.079 157.046 296.35 154.13C300.621 151.213 305.048 147.255 309.632 142.255C314.215 137.15 318.329 131.525 321.975 125.38C325.621 119.13 328.382 112.567 330.257 105.692C332.236 98.8171 332.757 92.0463 331.819 85.3796C329.319 83.4005 326.194 83.3484 322.444 85.2234C318.694 86.9942 314.684 89.963 310.413 94.1296C306.246 98.1921 302.079 103.088 297.913 108.817C293.85 114.442 290.257 120.171 287.132 126.005C284.007 131.734 281.611 137.15 279.944 142.255C278.382 147.359 278.017 151.369 278.85 154.286ZM382.444 161.473C382.236 161.369 382.236 160.171 382.444 157.88C382.757 155.484 383.173 152.515 383.694 148.973C384.215 145.432 384.892 141.525 385.725 137.255C386.559 132.984 387.444 128.921 388.382 125.067C389.319 121.109 390.309 117.671 391.35 114.755C392.496 111.734 393.59 109.65 394.632 108.505C395.361 107.775 396.09 107.775 396.819 108.505C397.548 109.13 398.277 109.963 399.007 111.005C399.736 111.942 400.465 112.828 401.194 113.661C401.923 114.39 402.704 114.442 403.538 113.817C406.454 109.755 409.632 105.9 413.069 102.255C416.611 98.5046 420.517 95.2755 424.788 92.5671C425.204 92.2546 426.35 91.7859 428.225 91.1609C430.1 90.4317 432.236 89.7546 434.632 89.1296C437.027 88.4005 439.475 87.8276 441.975 87.4109C444.579 86.8901 446.767 86.6817 448.538 86.7859C450.413 86.7859 451.663 87.2546 452.288 88.1921C453.017 89.0255 452.704 90.4838 451.35 92.5671C445.1 92.6713 439.267 94.4942 433.85 98.0359C428.434 101.578 423.434 105.953 418.85 111.161C414.267 116.369 410.1 122.046 406.35 128.192C402.6 134.234 399.319 139.859 396.507 145.067C393.798 150.275 391.507 154.598 389.632 158.036C387.861 161.473 386.559 163.192 385.725 163.192C385.621 163.192 385.152 162.984 384.319 162.567C383.486 162.046 382.861 161.682 382.444 161.473ZM462.757 159.598C460.257 157.515 458.85 154.442 458.538 150.38C458.329 146.317 458.902 141.734 460.257 136.63C461.715 131.525 463.798 126.213 466.507 120.692C469.319 115.067 472.548 109.755 476.194 104.755C479.84 99.6505 483.798 95.1192 488.069 91.1609C492.34 87.0984 496.611 84.1296 500.882 82.2546C505.152 80.2755 509.319 79.5984 513.382 80.2234C517.444 80.7442 521.142 83.088 524.475 87.2546C526.559 89.8588 527.809 92.5151 528.225 95.2234C528.642 97.8276 528.59 100.536 528.069 103.348C527.548 106.057 526.715 108.869 525.569 111.786C524.423 114.598 523.277 117.463 522.132 120.38C521.09 123.296 520.204 126.265 519.475 129.286C518.85 132.307 518.746 135.38 519.163 138.505C519.684 142.463 521.454 144.807 524.475 145.536C527.496 146.265 531.09 146.057 535.257 144.911C539.527 143.765 544.007 141.942 548.694 139.442C553.382 136.942 557.704 134.442 561.663 131.942C565.725 129.442 569.059 127.255 571.663 125.38C574.371 123.505 575.725 122.567 575.725 122.567C578.642 121.942 580.257 122.15 580.569 123.192C580.986 124.13 580.413 125.588 578.85 127.567C577.392 129.442 575.152 131.63 572.132 134.13C569.111 136.525 565.673 138.869 561.819 141.161C557.965 143.453 553.85 145.536 549.475 147.411C545.1 149.286 540.829 150.588 536.663 151.317C532.496 151.942 528.538 151.89 524.788 151.161C521.142 150.328 518.121 148.453 515.725 145.536C514.579 144.286 513.694 143.036 513.069 141.786C512.548 140.536 511.663 139.442 510.413 138.505C508.85 139.963 506.975 141.89 504.788 144.286C502.6 146.578 500.204 148.921 497.6 151.317C495.1 153.609 492.392 155.796 489.475 157.88C486.663 159.963 483.746 161.525 480.725 162.567C477.704 163.609 474.632 163.973 471.507 163.661C468.486 163.348 465.569 161.994 462.757 159.598ZM464.475 154.286C465.413 157.619 467.496 159.182 470.725 158.973C473.954 158.661 477.704 157.046 481.975 154.13C486.246 151.213 490.673 147.255 495.257 142.255C499.84 137.15 503.954 131.525 507.6 125.38C511.246 119.13 514.007 112.567 515.882 105.692C517.861 98.8171 518.382 92.0463 517.444 85.3796C514.944 83.4005 511.819 83.3484 508.069 85.2234C504.319 86.9942 500.309 89.963 496.038 94.1296C491.871 98.1921 487.704 103.088 483.538 108.817C479.475 114.442 475.882 120.171 472.757 126.005C469.632 131.734 467.236 137.15 465.569 142.255C464.007 147.359 463.642 151.369 464.475 154.286ZM624.475 161.473C624.163 158.036 624.423 154.65 625.257 151.317C626.194 147.88 627.392 144.546 628.85 141.317C630.413 137.984 632.027 134.703 633.694 131.473C635.465 128.14 636.975 124.911 638.225 121.786C639.475 118.557 640.361 115.432 640.882 112.411C641.402 109.286 641.194 106.213 640.257 103.192C637.652 102.255 634.632 102.463 631.194 103.817C627.861 105.171 624.319 107.255 620.569 110.067C616.819 112.775 612.913 116.005 608.85 119.755C604.892 123.4 600.986 127.15 597.132 131.005C593.382 134.755 589.788 138.348 586.35 141.786C582.913 145.223 579.788 148.088 576.975 150.38C574.267 152.567 571.975 153.973 570.1 154.598C568.225 155.119 566.975 154.442 566.35 152.567C566.246 152.463 566.819 151.161 568.069 148.661C569.423 146.057 571.038 142.828 572.913 138.973C574.892 135.119 577.027 130.953 579.319 126.473C581.715 121.994 583.954 117.828 586.038 113.973C588.121 110.015 589.944 106.682 591.507 103.973C593.069 101.265 594.059 99.8067 594.475 99.5984C596.663 101.057 597.757 102.671 597.757 104.442C597.861 106.109 597.6 107.88 596.975 109.755C596.35 111.525 595.621 113.348 594.788 115.223C594.059 117.098 593.954 118.973 594.475 120.848C596.142 119.703 598.434 118.14 601.35 116.161C604.371 114.078 607.6 111.942 611.038 109.755C614.579 107.567 618.225 105.432 621.975 103.348C625.829 101.265 629.423 99.6505 632.757 98.5046C636.09 97.2546 639.059 96.5776 641.663 96.4734C644.371 96.3692 646.35 97.1505 647.6 98.8171C648.85 100.484 649.215 103.244 648.694 107.098C648.277 110.848 646.663 116.005 643.85 122.567C643.538 123.296 642.757 125.067 641.507 127.88C640.361 130.588 639.059 133.557 637.6 136.786C636.246 139.911 634.944 142.88 633.694 145.692C632.548 148.4 631.819 150.119 631.507 150.848C631.402 151.265 631.246 152.046 631.038 153.192C630.934 154.234 630.777 155.432 630.569 156.786C630.361 158.036 630.048 159.286 629.632 160.536C629.215 161.682 628.694 162.567 628.069 163.192C627.444 163.817 626.715 163.765 625.882 163.036C625.048 162.203 624.579 161.682 624.475 161.473ZM655.257 161.473C659.527 147.723 663.382 136.838 666.819 128.817C670.361 120.692 673.277 115.015 675.569 111.786C677.965 108.557 679.58 107.515 680.413 108.661C681.246 109.807 681.142 112.723 680.1 117.411C679.163 122.098 677.08 128.4 673.85 136.317C670.725 144.13 666.298 153.088 660.569 163.192C659.736 163.505 658.746 163.557 657.6 163.348C656.455 163.14 655.673 162.515 655.257 161.473ZM682.6 86.3171C682.392 85.7963 682.288 84.8588 682.288 83.5046C682.288 82.1505 682.392 81.3171 682.6 81.0046C684.996 80.1713 686.819 80.0671 688.069 80.6921C689.319 81.3171 690.1 82.2546 690.413 83.5046C690.725 84.6505 690.673 85.9005 690.257 87.2546C689.944 88.6088 689.371 89.6505 688.538 90.3796C687.705 91.0046 686.715 91.1088 685.569 90.6921C684.527 90.1713 683.538 88.713 682.6 86.3171ZM707.444 161.473C707.34 161.265 707.288 160.692 707.288 159.755C707.288 158.817 707.34 158.192 707.444 157.88C707.757 156.734 708.33 154.755 709.163 151.942C709.996 149.025 710.882 146.005 711.819 142.88C712.757 139.65 713.642 136.63 714.475 133.817C715.309 131.005 715.882 129.025 716.194 127.88C716.611 126.421 717.08 124.755 717.6 122.88C718.121 120.9 718.225 119.025 717.913 117.255C716.35 117.046 714.423 117.255 712.132 117.88C709.84 118.4 707.548 118.869 705.257 119.286C703.069 119.598 700.986 119.598 699.007 119.286C697.132 118.869 695.777 117.619 694.944 115.536C696.194 112.932 698.069 111.265 700.569 110.536C703.069 109.703 705.777 109.13 708.694 108.817C711.611 108.505 714.371 108.036 716.975 107.411C719.684 106.786 721.819 105.38 723.382 103.192C724.319 100.484 725.413 97.2026 726.663 93.3484C728.017 89.3901 729.423 85.2755 730.882 81.0046C732.34 76.7338 733.902 72.5151 735.569 68.3484C737.34 64.1817 739.163 60.4838 741.038 57.2546C742.184 56.5255 743.121 56.4734 743.85 57.0984C744.58 57.7234 745.1 58.6609 745.413 59.9109C745.83 61.0567 746.09 62.2546 746.194 63.5046C746.298 64.7546 746.298 65.588 746.194 66.0046C745.569 68.713 744.475 71.6296 742.913 74.7546C741.455 77.7755 740.048 80.8484 738.694 83.9734C737.444 87.0984 736.402 90.2234 735.569 93.3484C734.84 96.4734 734.84 99.4421 735.569 102.255H769.163C769.267 102.255 769.527 102.619 769.944 103.348C770.361 103.973 770.725 104.494 771.038 104.911C771.559 106.369 770.986 107.359 769.319 107.88C767.652 108.4 765.413 108.765 762.6 108.973C759.788 109.078 756.559 109.182 752.913 109.286C749.371 109.286 745.934 109.546 742.6 110.067C739.371 110.484 736.455 111.265 733.85 112.411C731.246 113.453 729.475 115.067 728.538 117.255C725.83 124.234 723.33 131.265 721.038 138.348C718.746 145.328 716.559 152.411 714.475 159.598C714.267 159.911 713.85 160.432 713.225 161.161C712.6 161.786 711.923 162.359 711.194 162.88C710.465 163.296 709.736 163.453 709.007 163.348C708.382 163.244 707.861 162.619 707.444 161.473ZM772.757 161.473C768.382 159.703 765.621 157.046 764.475 153.505C763.434 149.963 763.486 146.057 764.632 141.786C765.777 137.411 767.757 132.932 770.569 128.348C773.382 123.661 776.507 119.39 779.944 115.536C783.382 111.682 786.819 108.453 790.257 105.848C793.798 103.14 796.819 101.63 799.319 101.317C805.777 100.484 810.83 100.953 814.475 102.723C818.225 104.39 820.777 106.838 822.132 110.067C823.486 113.296 823.85 117.098 823.225 121.473C822.6 125.744 821.194 130.067 819.007 134.442C816.923 138.817 814.163 143.036 810.725 147.098C807.392 151.161 803.642 154.598 799.475 157.411C795.413 160.119 791.09 161.942 786.507 162.88C781.923 163.713 777.34 163.244 772.757 161.473ZM771.038 152.567C771.871 155.9 773.642 157.775 776.35 158.192C779.059 158.505 782.184 157.828 785.725 156.161C789.371 154.39 793.173 151.89 797.132 148.661C801.09 145.328 804.684 141.734 807.913 137.88C811.246 134.025 813.955 130.171 816.038 126.317C818.225 122.359 819.267 118.921 819.163 116.005C819.163 113.088 817.757 110.9 814.944 109.442C812.236 107.88 807.652 107.567 801.194 108.505C799.736 109.859 797.861 111.525 795.569 113.505C793.277 115.38 790.882 117.463 788.382 119.755C785.986 122.046 783.59 124.546 781.194 127.255C778.798 129.859 776.715 132.567 774.944 135.38C773.173 138.192 771.871 141.057 771.038 143.973C770.309 146.89 770.309 149.755 771.038 152.567ZM894.788 161.473C891.975 160.328 889.736 158.817 888.069 156.942C886.402 155.067 885.1 152.932 884.163 150.536C883.225 148.14 882.496 145.64 881.975 143.036C881.455 140.328 880.986 137.619 880.569 134.911C879.632 134.286 877.965 134.911 875.569 136.786C873.173 138.557 870.413 140.796 867.288 143.505C864.163 146.213 860.777 149.025 857.132 151.942C853.59 154.755 850.152 156.838 846.819 158.192C843.486 159.546 840.413 159.807 837.6 158.973C834.892 158.14 832.757 155.432 831.194 150.848C830.673 149.286 830.83 147.046 831.663 144.13C832.6 141.109 833.955 137.828 835.725 134.286C837.496 130.744 839.527 127.098 841.819 123.348C844.215 119.494 846.507 115.953 848.694 112.723C850.986 109.39 853.069 106.578 854.944 104.286C856.923 101.89 858.434 100.328 859.475 99.5984C861.871 100.744 862.913 102.515 862.6 104.911C862.392 107.203 861.455 109.859 859.788 112.88C858.225 115.9 856.142 119.13 853.538 122.567C851.038 126.005 848.642 129.442 846.35 132.88C844.163 136.213 842.392 139.442 841.038 142.567C839.684 145.692 839.319 148.453 839.944 150.848C842.236 151.786 845.048 151.317 848.382 149.442C851.819 147.463 855.465 144.755 859.319 141.317C863.277 137.88 867.288 133.973 871.35 129.598C875.517 125.119 879.371 120.848 882.913 116.786C886.455 112.619 889.58 108.973 892.288 105.848C894.996 102.723 896.975 100.64 898.225 99.5984C900.413 100.64 901.507 102.359 901.507 104.755C901.507 107.046 900.882 109.703 899.632 112.723C898.486 115.744 897.027 119.025 895.257 122.567C893.59 126.005 892.132 129.442 890.882 132.88C889.632 136.317 888.902 139.598 888.694 142.723C888.486 145.848 889.319 148.557 891.194 150.848L896.507 157.098H912.288C913.017 157.098 913.173 157.411 912.757 158.036C912.34 158.661 911.715 159.338 910.882 160.067C910.152 160.796 909.371 161.525 908.538 162.255C907.705 162.88 907.236 163.192 907.132 163.192C904.423 163.713 902.236 163.765 900.569 163.348C898.902 163.036 896.975 162.411 894.788 161.473Z" fill="white"/>
</svg>
