<svg xmlns="http://www.w3.org/2000/svg" viewBox="0 0 64 64" x="0px" y="0px"><title>error, alert, image, picture</title><g><path d="M40.75,22.45a4,4,0,1,0-4-4A4,4,0,0,0,40.75,22.45Zm0-6a2,2,0,1,1-2,2A2,2,0,0,1,40.75,16.45Zm14,21.582V8.05a1,1,0,0,0-1-1h-49a1,1,0,0,0-1,1v41.8a1,1,0,0,0,1,1H41.042A10,10,0,1,0,54.75,38.032Zm-2-28.982V37.279a9.962,9.962,0,0,0-2.5-.329c-.149,0-.294.016-.441.023l-8.317-9.194a1,1,0,0,0-.742-.329h0a1,1,0,0,0-.744.336L32.764,35.93,21.509,22.8a1,1,0,0,0-.757-.349h0a1,1,0,0,0-.757.347L5.75,39.292V9.05Zm-47,39.8v-6.5l15-17.369L31.991,38.1a1,1,0,0,0,.75.349.946.946,0,0,0,.757-.335l7.258-8.167,6.7,7.407a9.968,9.968,0,0,0-7.022,11.5Zm44.5,6.1a8.009,8.009,0,0,1-7.586-5.477l-.007-.019a8,8,0,0,1,10.7-9.876l.012,0A8,8,0,0,1,50.25,54.95Zm1-12.92v6.945a1,1,0,0,1-2,0V42.03a1,1,0,0,1,2,0Zm-.08,9.46a1,1,0,0,1,.08.38,1.355,1.355,0,0,1-.02.2.636.636,0,0,1-.06.18.757.757,0,0,1-.09.18l-.12.15a1.155,1.155,0,0,1-.33.21.942.942,0,0,1-.76,0,1.032,1.032,0,0,1-.33-.21l-.12-.15a.757.757,0,0,1-.09-.18.636.636,0,0,1-.06-.18,1.355,1.355,0,0,1-.02-.2,1,1,0,0,1,.08-.38,1.155,1.155,0,0,1,.21-.33,1.032,1.032,0,0,1,.33-.21,1,1,0,0,1,.76,0,1.032,1.032,0,0,1,.33.21A1.155,1.155,0,0,1,51.17,51.49Z" fill="#EC96A4"/></g></svg>
