<svg viewBox="0 0 241 240" fill="none" xmlns="http://www.w3.org/2000/svg">
<path d="M120.5 126.913C127.217 126.913 149.822 115.245 165.725 116.919C171.989 117.578 181.928 119.597 190.521 125.151C200.354 131.507 208.578 143.37 211.59 153.222C212.175 155.135 210.275 156.694 208.379 156.054C194.224 151.276 180.858 150.439 173.324 152.212C164.999 154.171 156.882 159.996 150.041 165.903C143.343 171.687 135.082 175.513 120.5 175.513C105.918 175.513 97.6569 171.687 90.959 165.903C84.1185 159.996 76.0011 154.171 67.6757 152.212C60.1421 150.439 46.7759 151.276 32.6212 156.054C30.7257 156.694 28.8249 155.135 29.4099 153.222C32.4225 143.37 40.6461 131.507 50.4794 125.151C59.0722 119.597 69.0115 117.578 75.275 116.919C91.1776 115.245 113.783 126.913 120.5 126.913Z" fill="#EC96A4"/>
<path d="M134.089 69.7013C134.089 66.8214 136.424 64.4868 139.304 64.4868H207.093C209.973 64.4868 212.307 66.8214 212.307 69.7014V72.3086C212.307 75.1885 209.973 77.5232 207.093 77.5232H139.304C136.424 77.5232 134.089 75.1885 134.089 72.3086V69.7013Z" fill="#EC96A4"/>
<path d="M28.6926 69.7013C28.6926 66.8214 31.0273 64.4868 33.9072 64.4868H101.696C104.576 64.4868 106.911 66.8214 106.911 69.7014V72.3086C106.911 75.1885 104.576 77.5232 101.696 77.5232H33.9072C31.0273 77.5232 28.6926 75.1885 28.6926 72.3086V69.7013Z" fill="#EC96A4"/>
</svg>