<svg width="240" height="240" viewBox="0 0 241 240" fill="none" xmlns="http://www.w3.org/2000/svg">
<path id="mouth" d="M120.5 145.832C127.217 145.832 149.822 134.163 165.725 135.837C171.988 136.497 181.928 138.515 190.521 144.07C200.354 150.426 208.578 162.288 211.59 172.141C212.175 174.054 210.274 175.612 208.379 174.972C194.224 170.194 180.858 169.358 173.324 171.13C164.999 173.089 156.881 178.914 150.041 184.821C143.343 190.605 135.082 194.432 120.5 194.432C105.918 194.432 97.6568 190.605 90.9589 184.821C84.1184 178.914 76.001 173.089 67.6755 171.13C60.142 169.358 46.7757 170.194 32.6211 174.972C30.7255 175.612 28.8248 174.054 29.4098 172.141C32.4224 162.288 40.6459 150.426 50.4793 144.07C59.0721 138.515 69.0114 136.497 75.2748 135.837C91.1775 134.163 113.782 145.832 120.5 145.832Z" fill="#EC96A4"/>
<g id="left-eye">
<path id="Rectangle 16" d="M48.9286 100.457C47.035 98.5751 47.035 95.524 48.9286 93.6421L93.5 49.3451C95.3935 47.4632 98.4636 47.4632 100.357 49.3451L102.071 51.0488C103.965 52.9307 103.965 55.9818 102.071 57.8637L57.5 102.161C55.6065 104.043 52.5364 104.043 50.6429 102.161L48.9286 100.457Z" fill="#EC96A4"/>
<path id="Rectangle 17" d="M50.6876 48.946C52.5976 47.0806 55.6676 47.1072 57.5445 49.0054L101.725 93.6873C103.602 95.5855 103.575 98.6366 101.665 100.502L99.9363 102.191C98.0263 104.056 94.9563 104.03 93.0794 102.131L48.8986 57.4494C47.0217 55.5512 47.0485 52.5001 48.9585 50.6348L50.6876 48.946Z" fill="#EC96A4"/>
</g>
<g id="right-eye">
<path id="Rectangle 16_2" d="M138.929 100.457C137.035 98.5751 137.035 95.524 138.929 93.6421L183.5 49.3451C185.394 47.4632 188.464 47.4632 190.357 49.3451L192.071 51.0488C193.965 52.9307 193.965 55.9818 192.071 57.8637L147.5 102.161C145.606 104.043 142.536 104.043 140.643 102.161L138.929 100.457Z" fill="#EC96A4"/>
<path id="Rectangle 17_2" d="M140.688 48.946C142.598 47.0806 145.668 47.1072 147.545 49.0054L191.725 93.6873C193.602 95.5855 193.575 98.6366 191.665 100.502L189.936 102.191C188.026 104.056 184.956 104.03 183.079 102.131L138.899 57.4494C137.022 55.5512 137.048 52.5001 138.958 50.6348L140.688 48.946Z" fill="#EC96A4"/>
</g>
</svg>
